<svg xmlns="http://www.w3.org/2000/svg" width="101.119" height="88.96" viewBox="0 0 101.119 88.96">
  <g id="logo-fp" transform="translate(12593.323 -16225.069)">
    <circle id="Ellipse_50" data-name="Ellipse 50" cx="9.396" cy="9.396" r="9.396" transform="translate(-12555 16252)" fill="#005090"/>
    <path id="Path_433" data-name="Path 433" d="M369.775-120.665v-1a35.131,35.131,0,0,0-4.512-17.193l-.013-.026c-.078-.15-.123-.221-.123-.221-.012-.021-.025-.04-.037-.061A35.438,35.438,0,0,0,339.3-156.6l-.1-.016h-.007a25.544,25.544,0,0,0-3.818-.316c-.062,0-.124.007-.185.012-.226-.005-.451-.012-.678-.012H303.947a35.31,35.31,0,0,0-35.27,35.27v4.215a34.981,34.981,0,0,0,6.2,19.918,35.406,35.406,0,0,0,15.176,12.479c11.774,16.331,25.794,16.832,26.392,16.845l21.209.232V-82.226a33.078,33.078,0,0,0,12.894-3.814,35.309,35.309,0,0,0,19.226-31.4v-.5C369.8-118.83,369.8-119.744,369.775-120.665ZM337.655-108.5l14.976,14.974q-1.133.862-2.246,1.569a29.857,29.857,0,0,1-12.73,4.4Zm23-27.916a38.862,38.862,0,0,1,3.908,15.789v2.644c-.005.142-.013.283-.019.424s-.012.284-.02.425-.019.285-.029.427-.018.287-.029.43-.026.281-.039.422-.025.288-.039.431-.033.286-.05.428-.031.282-.048.422-.039.281-.059.421-.038.285-.059.426-.044.27-.066.405-.046.293-.072.439-.049.263-.073.4c-.028.148-.054.3-.084.445-.025.127-.053.254-.08.382-.032.151-.062.3-.1.453-.028.123-.058.245-.087.367-.036.155-.071.31-.109.465-.029.115-.06.23-.09.345-.042.161-.082.322-.126.482-.029.106-.061.212-.091.318-.047.169-.094.337-.144.505-.03.1-.064.2-.1.308-.053.17-.1.34-.159.509-.036.112-.075.222-.112.334-.053.16-.106.32-.161.479-.039.111-.081.221-.121.332-.057.159-.113.318-.172.476s-.115.295-.172.442c-.047.12-.092.24-.14.36-.1.261-.214.521-.325.781l-.007.017c-.062.144-.129.291-.2.439-.022.046-.045.092-.068.139-.051.1-.1.209-.158.315l-.081.154c-.059.11-.119.221-.181.332l-.071.126q-.129.228-.267.456c-.017.03-.036.059-.054.089-.076.125-.153.25-.233.376l-.1.154c-.069.107-.139.214-.209.321l-.1.154q-.121.182-.246.362l-.068.1q-.158.228-.32.454l-.089.123c-.08.111-.16.221-.241.331l-.116.156c-.076.1-.153.205-.23.306l-.105.14q-.15.2-.3.387l-.034.044c-.11.141-.219.28-.329.417l-.1.129-.227.282-.115.14-.22.268-.1.12c-.1.123-.2.244-.3.36l-.054.064-.241.283-.036.041L337.646-115.9l.229-24.229v-.012l.107-11.371a31.652,31.652,0,0,1,6.7,1.684,30.733,30.733,0,0,1,15.961,13.371Zm-28.232,21.585a2.478,2.478,0,0,0,.02.323v27.116l-24.284.011a54.785,54.785,0,0,1-12.333-1.124c-.31-.087-.619-.178-.926-.275l-.124-.039c-.374-.121-.746-.251-1.116-.387l-.1-.038a29.965,29.965,0,0,1-3.5-14.024v-4.217a30.093,30.093,0,0,1,30.059-30.059h12.52Zm-58.54-2.611v-4.215a30.061,30.061,0,0,1,30.061-30.061h28.828l-.085,8.965H320.121a35.268,35.268,0,0,0-35.268,35.268v4.217a35.069,35.069,0,0,0,1.139,8.845l-.082-.058A28.2,28.2,0,0,1,273.9-116.657Q273.887-117.05,273.886-117.445Zm42.676,44.034c-.575-.022-8.9-.5-17.554-9.11a35.411,35.411,0,0,0,4.939.346h28.5v8.938Z" transform="translate(-12862 16382)" fill="#005090"/>
  </g>
</svg>
